<?xml version="1.0" standalone="no"?>
<!DOCTYPE svg PUBLIC "-//W3C//DTD SVG 20010904//EN"
 "http://www.w3.org/TR/2001/REC-SVG-20010904/DTD/svg10.dtd">
<svg version="1.0" xmlns="http://www.w3.org/2000/svg"
 width="512.000000pt" height="512.000000pt" viewBox="0 0 512.000000 512.000000"
 preserveAspectRatio="xMidYMid meet">

<g transform="translate(0.000000,512.000000) scale(0.100000,-0.100000)"
fill="#000000" stroke="none">
<path d="M4820 4938 c-534 -311 -735 -430 -748 -443 -11 -10 19 -56 172 -261
103 -137 190 -250 194 -252 4 -1 81 122 171 274 90 151 171 285 181 296 15 20
22 20 77 12 l60 -10 23 60 c12 34 42 96 66 138 79 139 122 293 92 329 -12 15
-41 1 -288 -143z"/>
<path d="M2266 4874 c-277 -38 -534 -119 -776 -246 -117 -61 -285 -167 -277
-174 4 -4 350 -14 2137 -58 495 -12 537 -12 559 4 14 9 26 21 29 28 5 15 -163
125 -310 202 -245 128 -497 207 -783 244 -145 19 -439 19 -579 0z"/>
<path d="M414 4661 c-69 -50 -242 -235 -250 -266 -4 -17 -2 -44 7 -69 11 -33
33 -55 118 -120 l104 -79 196 -23 196 -23 120 119 c66 66 156 147 199 181 76
60 79 63 55 71 -307 117 -650 238 -674 238 -20 0 -47 -11 -71 -29z"/>
<path d="M4403 3918 l-21 -23 30 -1335 c16 -734 32 -1342 34 -1350 7 -20 118
152 193 299 267 523 324 1129 160 1698 -40 141 -91 268 -160 403 -62 122 -192
330 -207 330 -5 0 -18 -10 -29 -22z"/>
<path d="M1697 3116 c-4 -11 -325 -444 -346 -468 -4 -5 -1010 -88 -1067 -88
-21 0 -47 -164 -40 -248 38 -417 235 -887 514 -1224 35 -43 65 -78 67 -78 2 0
65 78 141 173 278 347 648 781 1068 1250 127 142 232 262 233 265 4 14 -565
431 -570 418z"/>
<path d="M2474 2073 c-256 -229 -662 -582 -889 -773 -215 -181 -575 -470 -586
-470 -4 0 -45 37 -91 83 l-83 83 -25 -27 -25 -28 -305 79 c-168 44 -315 80
-328 80 -30 0 -118 -83 -132 -124 -13 -39 -3 -72 31 -102 45 -40 472 -334 485
-334 8 0 14 -6 14 -14 0 -12 300 -447 338 -489 26 -30 60 -39 98 -27 41 14
124 102 124 132 0 13 -36 161 -79 330 l-79 308 25 20 c14 11 29 20 33 20 4 0
45 -31 91 -68 413 -335 926 -522 1436 -522 375 0 725 79 1048 236 111 54 300
165 329 194 7 7 -1180 1590 -1203 1605 -5 2 -106 -84 -227 -192z"/>
<path d="M4385 1103 c-81 -104 -262 -284 -368 -367 -48 -37 -87 -70 -87 -74 0
-16 353 -470 372 -479 80 -38 113 -25 242 98 119 114 149 155 149 207 -1 33
-224 665 -242 684 -4 4 -33 -27 -66 -69z"/>
</g>
</svg>
